<svg width="22" height="22" viewBox="0 0 22 22" fill="none" xmlns="http://www.w3.org/2000/svg">
<path d="M10.4167 16.25H11.5833V11.5833H16.25V10.4167H11.5833V5.75H10.4167V10.4167H5.75V11.5833H10.4167V16.25ZM11.0039 21.5C9.55193 21.5 8.18684 21.2245 6.90862 20.6734C5.6304 20.1224 4.51852 19.3745 3.57297 18.4299C2.62745 17.4852 1.8789 16.3744 1.32734 15.0974C0.77578 13.8204 0.5 12.4559 0.5 11.0039C0.5 9.55193 0.775518 8.18684 1.32655 6.90862C1.87761 5.6304 2.62546 4.51852 3.57011 3.57297C4.51476 2.62745 5.62559 1.8789 6.90261 1.32734C8.17964 0.775781 9.54414 0.5 10.9961 0.5C12.4481 0.5 13.8132 0.775518 15.0914 1.32655C16.3696 1.87761 17.4815 2.62546 18.427 3.57011C19.3726 4.51476 20.1211 5.62559 20.6727 6.90261C21.2242 8.17964 21.5 9.54414 21.5 10.9961C21.5 12.4481 21.2245 13.8132 20.6734 15.0914C20.1224 16.3696 19.3745 17.4815 18.4299 18.427C17.4852 19.3726 16.3744 20.1211 15.0974 20.6727C13.8204 21.2242 12.4559 21.5 11.0039 21.5ZM11 20.3333C13.6056 20.3333 15.8125 19.4292 17.6208 17.6208C19.4292 15.8125 20.3333 13.6056 20.3333 11C20.3333 8.39444 19.4292 6.1875 17.6208 4.37917C15.8125 2.57083 13.6056 1.66667 11 1.66667C8.39444 1.66667 6.1875 2.57083 4.37917 4.37917C2.57083 6.1875 1.66667 8.39444 1.66667 11C1.66667 13.6056 2.57083 15.8125 4.37917 17.6208C6.1875 19.4292 8.39444 20.3333 11 20.3333Z" fill="black"/>
</svg>
