<svg width="32" height="32" viewBox="0 0 32 32" fill="none" xmlns="http://www.w3.org/2000/svg">
<path d="M15.16 12.16V7.66H10.66V4.66H15.16V0.160004H18.16V4.66H22.66V7.66H18.16V12.16H15.16ZM9.16 31.66C8.335 31.66 7.62875 31.3663 7.04125 30.7788C6.45375 30.1913 6.16 29.485 6.16 28.66C6.16 27.835 6.45375 27.1288 7.04125 26.5413C7.62875 25.9538 8.335 25.66 9.16 25.66C9.985 25.66 10.6913 25.9538 11.2788 26.5413C11.8663 27.1288 12.16 27.835 12.16 28.66C12.16 29.485 11.8663 30.1913 11.2788 30.7788C10.6913 31.3663 9.985 31.66 9.16 31.66ZM24.16 31.66C23.335 31.66 22.6288 31.3663 22.0413 30.7788C21.4538 30.1913 21.16 29.485 21.16 28.66C21.16 27.835 21.4538 27.1288 22.0413 26.5413C22.6288 25.9538 23.335 25.66 24.16 25.66C24.985 25.66 25.6913 25.9538 26.2788 26.5413C26.8663 27.1288 27.16 27.835 27.16 28.66C27.16 29.485 26.8663 30.1913 26.2788 30.7788C25.6913 31.3663 24.985 31.66 24.16 31.66ZM0.160004 4.66V1.66H5.0725L11.4475 15.16H21.9475L27.7975 4.66H31.21L24.61 16.585C24.335 17.085 23.9663 17.4725 23.5038 17.7475C23.0413 18.0225 22.535 18.16 21.985 18.16H10.81L9.16 21.16H27.16V24.16H9.16C8.035 24.16 7.17875 23.6725 6.59125 22.6975C6.00375 21.7225 5.985 20.735 6.535 19.735L8.56 16.06L3.16 4.66H0.160004Z" fill="white"/>
</svg>
