<svg width="21" height="20" viewBox="0 0 21 20" fill="none" xmlns="http://www.w3.org/2000/svg">
<path d="M9.09902 14.6L16.149 7.55L14.749 6.15L9.09902 11.8L6.24902 8.95L4.84902 10.35L9.09902 14.6ZM10.499 20C9.11569 20 7.81569 19.7375 6.59902 19.2125C5.38236 18.6875 4.32402 17.975 3.42402 17.075C2.52402 16.175 1.81152 15.1167 1.28652 13.9C0.761523 12.6833 0.499023 11.3833 0.499023 10C0.499023 8.61667 0.761523 7.31667 1.28652 6.1C1.81152 4.88333 2.52402 3.825 3.42402 2.925C4.32402 2.025 5.38236 1.3125 6.59902 0.7875C7.81569 0.2625 9.11569 0 10.499 0C11.8824 0 13.1824 0.2625 14.399 0.7875C15.6157 1.3125 16.674 2.025 17.574 2.925C18.474 3.825 19.1865 4.88333 19.7115 6.1C20.2365 7.31667 20.499 8.61667 20.499 10C20.499 11.3833 20.2365 12.6833 19.7115 13.9C19.1865 15.1167 18.474 16.175 17.574 17.075C16.674 17.975 15.6157 18.6875 14.399 19.2125C13.1824 19.7375 11.8824 20 10.499 20ZM10.499 18C12.7324 18 14.624 17.225 16.174 15.675C17.724 14.125 18.499 12.2333 18.499 10C18.499 7.76667 17.724 5.875 16.174 4.325C14.624 2.775 12.7324 2 10.499 2C8.26569 2 6.37402 2.775 4.82402 4.325C3.27402 5.875 2.49902 7.76667 2.49902 10C2.49902 12.2333 3.27402 14.125 4.82402 15.675C6.37402 17.225 8.26569 18 10.499 18Z" fill="black"/>
</svg>
