<svg width="149" height="35" viewBox="0 0 149 35" fill="none" xmlns="http://www.w3.org/2000/svg">
<path d="M1.26074 7.29416V27.3159C1.26074 27.7385 1.60377 28.0822 2.02557 28.0822H23.2426C29.1834 28.0822 33.9991 23.2572 33.9991 17.305C33.9991 11.3528 29.1834 6.52786 23.2426 6.52786H2.02557C1.60377 6.52786 1.26074 6.87155 1.26074 7.29416Z" fill="white"/>
<path d="M3.84624 14.8831H2.49097V19.6261H3.83897C4.556 19.6261 5.07378 19.4568 5.52809 19.0786C6.06806 18.6307 6.38737 17.956 6.38737 17.2579C6.38737 15.8583 5.34377 14.8831 3.84624 14.8831ZM4.92502 18.4464C4.63477 18.7089 4.2581 18.8234 3.66153 18.8234H3.41335V15.687H3.66115C4.25771 15.687 4.61948 15.7935 4.92464 16.0705C5.24396 16.3552 5.43593 16.7966 5.43593 17.251C5.43631 17.7066 5.24434 18.1617 4.92502 18.4464Z" fill="black"/>
<path d="M7.73564 14.8831H6.8125V19.6261H7.73564V14.8831Z" fill="black"/>
<path d="M9.9934 16.7035C9.43929 16.4981 9.27638 16.3625 9.27638 16.1065C9.27638 15.8077 9.56625 15.5809 9.96434 15.5809C10.2412 15.5809 10.4684 15.6947 10.7089 15.9652L11.1923 15.3311C10.7949 14.9832 10.32 14.805 9.80105 14.805C8.96357 14.805 8.32455 15.3878 8.32455 16.164C8.32455 16.8177 8.62207 17.1518 9.48938 17.4648C9.85076 17.5924 10.0347 17.6778 10.1276 17.7349C10.312 17.8552 10.4045 18.0265 10.4045 18.2257C10.4045 18.61 10.0993 18.8947 9.68747 18.8947C9.24732 18.8947 8.89244 18.6744 8.67982 18.2625L8.08325 18.8376C8.50849 19.4633 9.0194 19.7407 9.72227 19.7407C10.6821 19.7407 11.3552 19.1016 11.3552 18.1836C11.3552 17.4292 11.0439 17.0885 9.9934 16.7035Z" fill="black"/>
<path d="M11.6467 17.2583C11.6467 18.6522 12.7393 19.733 14.1454 19.733C14.5427 19.733 14.8831 19.6549 15.303 19.4572V18.3679C14.9336 18.738 14.6066 18.887 14.1882 18.887C13.2582 18.887 12.5982 18.2115 12.5982 17.251C12.5982 16.3406 13.2792 15.6222 14.1454 15.6222C14.5856 15.6222 14.9194 15.7793 15.303 16.156V15.0674C14.8976 14.8613 14.5645 14.7762 14.1672 14.7762C12.7683 14.7762 11.6467 15.8789 11.6467 17.2583Z" fill="black"/>
<path d="M22.6246 18.069L21.3615 14.8831H20.353L22.3622 19.7483H22.859L24.9041 14.8831H23.903L22.6246 18.069Z" fill="black"/>
<path d="M25.3213 19.6265H27.9404V18.8234H26.2444V17.543H27.8773V16.7395H26.2444V15.687H27.9404V14.8831H25.3213V19.6265Z" fill="black"/>
<path d="M31.5968 16.2835C31.5968 15.3958 30.9857 14.8835 29.921 14.8835H28.552V19.6265H29.474V17.7211H29.5948L30.8729 19.6265H32.0082L30.5176 17.6284C31.2136 17.4866 31.5968 17.01 31.5968 16.2835ZM29.744 17.0671H29.474V15.6307H29.7585C30.3337 15.6307 30.6465 15.872 30.6465 16.3337C30.6465 16.8104 30.3337 17.0671 29.744 17.0671Z" fill="black"/>
<path d="M32.3324 15.1322C32.3324 15.0487 32.2747 15.0031 32.1741 15.0031H32.0403V15.4211H32.1397V15.259L32.2563 15.4211H32.3779L32.2407 15.2487C32.2996 15.233 32.3324 15.1901 32.3324 15.1322ZM32.1569 15.1893H32.1397V15.0797H32.1577C32.207 15.0797 32.2326 15.0973 32.2326 15.1334C32.2326 15.1705 32.2066 15.1893 32.1569 15.1893Z" fill="black"/>
<path d="M32.1945 14.8467C31.9918 14.8467 31.8308 15.0088 31.8308 15.2115C31.8308 15.4142 31.9937 15.5763 32.1945 15.5763C32.3918 15.5763 32.554 15.4123 32.554 15.2115C32.554 15.0115 32.3918 14.8467 32.1945 14.8467ZM32.193 15.5111C32.0335 15.5111 31.9031 15.3782 31.9031 15.2119C31.9031 15.0452 32.0323 14.9123 32.193 14.9123C32.352 14.9123 32.4809 15.0483 32.4809 15.2119C32.4809 15.3762 32.3517 15.5111 32.193 15.5111Z" fill="black"/>
<path d="M20.6161 17.2498C20.6161 18.6368 19.4941 19.7614 18.1094 19.7614C16.7247 19.7614 15.6023 18.6368 15.6023 17.2498C15.6023 15.8625 16.7247 14.7383 18.109 14.7383C19.4933 14.7383 20.6161 15.8625 20.6161 17.2498Z" fill="#F47922"/>
<path d="M34.5659 6.14471H2.02566C1.392 6.14471 0.878418 6.65928 0.878418 7.29416V27.3159C0.878418 27.9508 1.392 28.4653 2.02566 28.4653H34.5659C35.1996 28.4653 35.7132 27.9508 35.7132 27.3159V7.29416C35.7132 6.65928 35.1996 6.14471 34.5659 6.14471ZM33.9992 17.305C33.9992 23.2572 29.1835 28.0822 23.2427 28.0822H2.02566C1.60385 28.0822 1.26083 27.7385 1.26083 27.3159V7.29416C1.26083 6.87154 1.60385 6.52786 2.02566 6.52786H23.2427C29.1835 6.52786 33.9992 11.3528 33.9992 17.305Z" fill="#F47922"/>
<path d="M54.8362 11.805L50.0528 23.2249H46.9319L44.5779 14.1113C44.435 13.55 44.3107 13.3443 43.8761 13.1078C43.1665 12.7226 41.9946 12.3612 40.9636 12.1369L41.0337 11.805H46.0573C46.6976 11.805 47.2733 12.2315 47.4187 12.9694L48.6619 19.5775L51.7344 11.8048L54.8362 11.805ZM67.0643 19.4964C67.0769 16.4823 62.8991 16.3163 62.9278 14.9699C62.9368 14.5601 63.3267 14.1244 64.1802 14.0132C64.6032 13.9578 65.7688 13.9156 67.0908 14.5243L67.6093 12.1026C66.899 11.8446 65.985 11.5963 64.8477 11.5963C61.9295 11.5963 59.8759 13.1486 59.8586 15.3713C59.8397 17.0153 61.3244 17.9327 62.443 18.479C63.5937 19.0385 63.9798 19.398 63.9754 19.8984C63.9672 20.6644 63.0576 21.0026 62.2076 21.0159C60.7236 21.0388 59.8625 20.6141 59.1761 20.2948L58.641 22.7967C59.3309 23.1133 60.6041 23.3896 61.9242 23.4035C65.0259 23.4035 67.0548 21.8705 67.0643 19.4964ZM74.7702 23.2249H77.5008L75.1173 11.805H72.597C72.0303 11.805 71.5523 12.1352 71.3407 12.6428L66.9104 23.2249H70.0105L70.6259 21.5192H74.4138L74.7702 23.2249ZM71.476 19.1786L73.0299 14.8909L73.9243 19.1786H71.476ZM59.0545 11.805L56.6132 23.2249H53.661L56.1032 11.805H59.0545Z" fill="#1434CB"/>
<path d="M103.744 10.3724H95.8384V24.6276H103.744V10.3724Z" fill="#FF5F00"/>
<path d="M96.3403 17.5C96.3403 14.7296 97.6203 12.0851 99.7786 10.3724C95.8635 7.2746 90.1665 7.95462 87.0796 11.9088C84.0178 15.8377 84.6954 21.5297 88.6356 24.6276C91.9233 27.2217 96.516 27.2217 99.8037 24.6276C97.6203 22.9149 96.3403 20.2704 96.3403 17.5Z" fill="#EB001B"/>
<path d="M114.41 17.5C114.41 22.512 110.369 26.5669 105.375 26.5669C103.342 26.5669 101.385 25.8868 99.8037 24.6276C103.719 21.5297 104.396 15.8377 101.31 11.8836C100.858 11.3295 100.356 10.8006 99.8037 10.3724C103.719 7.2746 109.416 7.95462 112.478 11.9088C113.732 13.4955 114.41 15.46 114.41 17.5Z" fill="#F79E1B"/>
<path d="M144.534 28.4705H133.548H122.428V17.288V6.32562H133.4H144.534V17.3969V28.4705Z" fill="white"/>
<path d="M144.534 28.4705V24.9615H141.868L140.495 23.4406L139.115 24.9615H130.322V17.8731H127.483L131.004 9.89245H134.399L135.611 12.6265V9.89245H139.813L140.543 11.9527L141.277 9.89245H144.534V6.32562H122.428V28.4705H144.534ZM142.317 24.0741H144.534L141.601 20.9577L144.534 17.8767H142.352L140.54 19.8599L138.746 17.8767H136.528L139.444 20.9754L136.528 24.0741H138.684L140.505 22.0732L142.317 24.0741ZM142.836 20.9603L144.534 22.7708V19.1649L142.836 20.9603ZM132.949 22.6398V21.6747H136.439V20.2759H132.949V19.311H136.528V17.8767H131.261V24.0741H136.528V22.6398H132.949ZM142.864 16.9773H144.534V10.78H141.936L140.548 14.6399L139.17 10.78H136.527V16.9773H138.198V12.6392L139.789 16.9773H141.273L142.864 12.6303V16.9773ZM134.627 16.9773H136.527L133.797 10.78H131.622L128.891 16.9773H130.747L131.26 15.7379H134.106L134.627 16.9773ZM133.523 14.3479H131.843L132.683 12.3205L133.523 14.3479Z" fill="#006FCF"/>
</svg>
