<svg width="21" height="21" viewBox="0 0 21 21" fill="none" xmlns="http://www.w3.org/2000/svg">
<path d="M2.41253 20.0366C1.8781 20.0366 1.42574 19.8515 1.05544 19.4812C0.685148 19.1109 0.5 18.6585 0.5 18.1241V3.96339C0.5 3.42896 0.685148 2.9766 1.05544 2.6063C1.42574 2.23601 1.8781 2.05086 2.41253 2.05086H11.5702L9.98327 3.63782H2.41253C2.33113 3.63782 2.25652 3.67173 2.18868 3.73954C2.12087 3.80738 2.08696 3.88199 2.08696 3.96339V18.1241C2.08696 18.2055 2.12087 18.2801 2.18868 18.3479C2.25652 18.4158 2.33113 18.4497 2.41253 18.4497H16.5732C16.6546 18.4497 16.7293 18.4158 16.7971 18.3479C16.8649 18.2801 16.8988 18.2055 16.8988 18.1241V10.4862L18.4858 8.89928V18.1241C18.4858 18.6585 18.3006 19.1109 17.9303 19.4812C17.56 19.8515 17.1077 20.0366 16.5732 20.0366H2.41253ZM6.84794 13.6887V10.057L16.4329 0.472022C16.597 0.307893 16.7774 0.188189 16.9741 0.112913C17.1708 0.0376375 17.3708 0 17.5743 0C17.7818 0 17.9812 0.0376375 18.1724 0.112913C18.3637 0.188189 18.538 0.304498 18.6953 0.461839L20.0239 1.78636C20.1772 1.95047 20.2949 2.13155 20.3769 2.32959C20.459 2.52761 20.5 2.72834 20.5 2.9318C20.5 3.13526 20.4651 3.33262 20.3952 3.52387C20.3254 3.7151 20.2084 3.89278 20.0443 4.05691L10.4288 13.6887H6.84794ZM8.4349 12.1017H9.75331L16.3475 5.50758L15.6883 4.84837L14.9823 4.16882L8.4349 10.7162V12.1017Z" fill="black"/>
</svg>
