<svg width="26" height="23" viewBox="0 0 26 23" fill="none" xmlns="http://www.w3.org/2000/svg">
<path d="M13 22.843L11.9266 21.8731C9.61452 19.7608 7.70202 17.9527 6.18909 16.4489C4.67616 14.945 3.48198 13.6187 2.60655 12.4699C1.73112 11.3212 1.11951 10.2818 0.771723 9.35193C0.423908 8.42201 0.25 7.48664 0.25 6.54583C0.25 4.74412 0.862071 3.23119 2.08621 2.00705C3.31035 0.782904 4.82328 0.170833 6.625 0.170833C7.87093 0.170833 9.03968 0.489583 10.1312 1.12708C11.2228 1.76458 12.1791 2.69177 13 3.90864C13.8209 2.69177 14.7772 1.76458 15.8688 1.12708C16.9603 0.489583 18.1291 0.170833 19.375 0.170833C21.1767 0.170833 22.6896 0.782904 23.9138 2.00705C25.1379 3.23119 25.75 4.74412 25.75 6.54583C25.75 7.48664 25.5761 8.42201 25.2283 9.35193C24.8805 10.2818 24.2689 11.3212 23.3934 12.4699C22.518 13.6187 21.3284 14.945 19.8245 16.4489C18.3207 17.9527 16.4036 19.7608 14.0734 21.8731L13 22.843ZM13 20.925C15.2667 18.8763 17.1319 17.1213 18.5958 15.6602C20.0597 14.199 21.2167 12.9313 22.0667 11.857C22.9167 10.7827 23.5069 9.83097 23.8375 9.00184C24.1681 8.17273 24.3333 7.35407 24.3333 6.54583C24.3333 5.12917 23.8611 3.94861 22.9167 3.00417C21.9722 2.05972 20.7917 1.5875 19.375 1.5875C18.2471 1.5875 17.2064 1.90943 16.2529 2.55328C15.2994 3.19713 14.4457 4.16655 13.692 5.46155H12.308C11.5361 4.1484 10.6779 3.17444 9.73349 2.53968C8.78904 1.90489 7.75288 1.5875 6.625 1.5875C5.22649 1.5875 4.05048 2.05972 3.09697 3.00417C2.14343 3.94861 1.66667 5.12917 1.66667 6.54583C1.66667 7.35407 1.83194 8.17273 2.1625 9.00184C2.49306 9.83097 3.08333 10.7827 3.93333 11.857C4.78333 12.9313 5.94028 14.1945 7.40417 15.6466C8.86806 17.0987 10.7333 18.8581 13 20.925Z" fill="black"/>
</svg>
