<svg width="22" height="29" viewBox="0 0 22 29" fill="none" xmlns="http://www.w3.org/2000/svg">
<path d="M3.00004 28.3333C2.26671 28.3333 1.63893 28.0722 1.11671 27.55C0.594485 27.0278 0.333374 26.4 0.333374 25.6666V12.3333C0.333374 11.6 0.594485 10.9722 1.11671 10.45C1.63893 9.92776 2.26671 9.66665 3.00004 9.66665H4.33337V6.99998C4.33337 5.15554 4.98337 3.58331 6.28337 2.28331C7.58337 0.983313 9.1556 0.333313 11 0.333313C12.8445 0.333313 14.4167 0.983313 15.7167 2.28331C17.0167 3.58331 17.6667 5.15554 17.6667 6.99998V9.66665H19C19.7334 9.66665 20.3612 9.92776 20.8834 10.45C21.4056 10.9722 21.6667 11.6 21.6667 12.3333V25.6666C21.6667 26.4 21.4056 27.0278 20.8834 27.55C20.3612 28.0722 19.7334 28.3333 19 28.3333H3.00004ZM3.00004 25.6666H19V12.3333H3.00004V25.6666ZM11 21.6666C11.7334 21.6666 12.3612 21.4055 12.8834 20.8833C13.4056 20.3611 13.6667 19.7333 13.6667 19C13.6667 18.2666 13.4056 17.6389 12.8834 17.1166C12.3612 16.5944 11.7334 16.3333 11 16.3333C10.2667 16.3333 9.63893 16.5944 9.11671 17.1166C8.59449 17.6389 8.33337 18.2666 8.33337 19C8.33337 19.7333 8.59449 20.3611 9.11671 20.8833C9.63893 21.4055 10.2667 21.6666 11 21.6666ZM7.00004 9.66665H15V6.99998C15 5.88887 14.6112 4.94442 13.8334 4.16665C13.0556 3.38887 12.1112 2.99998 11 2.99998C9.88893 2.99998 8.94449 3.38887 8.16671 4.16665C7.38893 4.94442 7.00004 5.88887 7.00004 6.99998V9.66665Z" fill="black"/>
</svg>
