<svg width="20" height="20" viewBox="0 0 20 20" fill="none" xmlns="http://www.w3.org/2000/svg">
<path d="M5.99976 20.0001C5.44976 20.0001 4.97892 19.8043 4.58726 19.4126C4.19559 19.021 3.99976 18.5501 3.99976 18.0001C3.99976 17.4501 4.19559 16.9793 4.58726 16.5876C4.97892 16.196 5.44976 16.0001 5.99976 16.0001C6.54976 16.0001 7.02059 16.196 7.41226 16.5876C7.80392 16.9793 7.99976 17.4501 7.99976 18.0001C7.99976 18.5501 7.80392 19.021 7.41226 19.4126C7.02059 19.8043 6.54976 20.0001 5.99976 20.0001ZM15.9998 20.0001C15.4498 20.0001 14.9789 19.8043 14.5873 19.4126C14.1956 19.021 13.9998 18.5501 13.9998 18.0001C13.9998 17.4501 14.1956 16.9793 14.5873 16.5876C14.9789 16.196 15.4498 16.0001 15.9998 16.0001C16.5498 16.0001 17.0206 16.196 17.4123 16.5876C17.8039 16.9793 17.9998 17.4501 17.9998 18.0001C17.9998 18.5501 17.8039 19.021 17.4123 19.4126C17.0206 19.8043 16.5498 20.0001 15.9998 20.0001ZM5.14976 4.00012L7.54976 9.00012H14.5498L17.2998 4.00012H5.14976ZM4.19976 2.00012H18.9498C19.3331 2.00012 19.6248 2.17096 19.8248 2.51262C20.0248 2.85429 20.0331 3.20012 19.8498 3.55012L16.2998 9.95012C16.1164 10.2835 15.8706 10.5418 15.5623 10.7251C15.2539 10.9085 14.9164 11.0001 14.5498 11.0001H7.09976L5.99976 13.0001H17.9998V15.0001H5.99976C5.24976 15.0001 4.68309 14.671 4.29976 14.0126C3.91642 13.3543 3.89976 12.7001 4.24976 12.0501L5.59976 9.60012L1.99976 2.00012H-0.000244141V0.00012207H3.24976L4.19976 2.00012Z" fill="black"/>
</svg>
