<svg width="36" height="36" viewBox="0 0 36 36" fill="none" xmlns="http://www.w3.org/2000/svg">
<path d="M13.594 25V23.11L18.454 18.52C18.838 18.172 19.12 17.86 19.3 17.584C19.48 17.308 19.6 17.056 19.66 16.828C19.732 16.6 19.768 16.39 19.768 16.198C19.768 15.694 19.594 15.31 19.246 15.046C18.91 14.77 18.412 14.632 17.752 14.632C17.224 14.632 16.732 14.734 16.276 14.938C15.832 15.142 15.454 15.46 15.142 15.892L13.018 14.524C13.498 13.804 14.17 13.234 15.034 12.814C15.898 12.394 16.894 12.184 18.022 12.184C18.958 12.184 19.774 12.34 20.47 12.652C21.178 12.952 21.724 13.378 22.108 13.93C22.504 14.482 22.702 15.142 22.702 15.91C22.702 16.318 22.648 16.726 22.54 17.134C22.444 17.53 22.24 17.95 21.928 18.394C21.628 18.838 21.184 19.336 20.596 19.888L16.564 23.686L16.006 22.624H23.116V25H13.594Z" fill="black"/>
<circle cx="18" cy="18" r="17" stroke="black" stroke-width="2"/>
</svg>
