<svg width="154" height="55" viewBox="0 0 154 55" fill="none" xmlns="http://www.w3.org/2000/svg">
<path d="M32.1139 23.7775L25.6076 30.5525L19.1016 23.7775L25.6076 17.0027L32.1139 23.7775Z" fill="#113050"/>
<path d="M32.1138 23.7775L32.9922 28.4933L26.4862 35.2685L25.6074 30.5525L32.1138 23.7775Z" fill="#76C6B3"/>
<path d="M24.7239 12.2793L18.2175 19.0543L19.1013 23.7777L25.6077 17.0025L24.7239 12.2793Z" fill="#0075C9"/>
<path d="M14.5605 24.6977L21.0669 31.4728L25.6078 30.5524L19.1017 23.7777L14.5605 24.6977Z" fill="#F2B5B6"/>
<path d="M25.6077 17.0027L30.1435 16.0879L36.6499 22.8625L32.114 23.7777L25.6077 17.0027Z" fill="#F8BA17"/>
<mask id="mask0_2021_49558" style="mask-type:luminance" maskUnits="userSpaceOnUse" x="14" y="12" width="122" height="31">
<path d="M135.975 12.2793H14.5605V42.7807H135.975V12.2793Z" fill="white"/>
</mask>
<g mask="url(#mask0_2021_49558)">
<path d="M44.6134 23.0396L44.5053 23.0196C43.1795 22.7756 42.034 22.5647 42.034 21.4117C42.034 20.3145 42.9016 19.6054 44.2451 19.6054C45.5334 19.6054 46.3671 20.2785 46.4207 21.3622L46.4257 21.4593H48.3323L48.3289 21.3532C48.2563 19.1521 46.6011 17.6735 44.21 17.6735C41.7565 17.6735 40.1083 19.1982 40.1083 21.4673C40.1083 24.2405 42.1906 24.6232 44.0278 24.9605L44.1325 24.9796C45.4551 25.2233 46.5967 25.4337 46.5967 26.5891C46.5967 27.7437 45.6977 28.4328 44.1915 28.4328C42.7427 28.4328 41.8564 27.7425 41.8218 26.5862L41.819 26.4866H39.8416L39.844 26.5919C39.8973 28.8832 41.6041 30.3647 44.192 30.3647C46.8444 30.3647 48.5583 28.8612 48.5583 26.5346C48.5583 23.7573 46.4623 23.3763 44.6134 23.0396Z" fill="#113050"/>
</g>
<mask id="mask1_2021_49558" style="mask-type:luminance" maskUnits="userSpaceOnUse" x="14" y="12" width="122" height="31">
<path d="M135.975 12.2793H14.5605V42.7807H135.975V12.2793Z" fill="white"/>
</mask>
<g mask="url(#mask1_2021_49558)">
<path d="M62.6464 20.6115C59.871 20.6115 57.8572 22.6624 57.8572 25.4883C57.8572 28.3136 59.871 30.3651 62.6464 30.3651C65.421 30.3651 67.4353 28.3136 67.4353 25.4883C67.4353 22.6626 65.421 20.6115 62.6464 20.6115ZM65.5449 25.4883C65.5449 27.2867 64.3529 28.5437 62.6464 28.5437C60.9396 28.5437 59.7476 27.2867 59.7476 25.4883C59.7476 23.6894 60.9396 22.4329 62.6464 22.4329C64.3529 22.4329 65.5449 23.6894 65.5449 25.4883Z" fill="#113050"/>
</g>
<mask id="mask2_2021_49558" style="mask-type:luminance" maskUnits="userSpaceOnUse" x="14" y="12" width="122" height="31">
<path d="M135.975 12.2793H14.5605V42.7807H135.975V12.2793Z" fill="white"/>
</mask>
<g mask="url(#mask2_2021_49558)">
<path d="M72.9765 20.6115C70.2204 20.6115 68.5752 22.3658 68.5752 25.3042V30.1259H70.4479V25.3042C70.4479 23.4797 71.3696 22.4332 72.9765 22.4332C74.5833 22.4332 75.5051 23.4797 75.5051 25.3042V30.1259H77.3774V25.3042C77.3774 22.3658 75.7324 20.6115 72.9765 20.6115Z" fill="#113050"/>
</g>
<mask id="mask3_2021_49558" style="mask-type:luminance" maskUnits="userSpaceOnUse" x="14" y="12" width="122" height="31">
<path d="M135.975 12.2793H14.5605V42.7807H135.975V12.2793Z" fill="white"/>
</mask>
<g mask="url(#mask3_2021_49558)">
<path d="M83.3062 20.6113C80.5312 20.6113 78.5173 22.6623 78.5173 25.4885C78.5173 28.3138 80.5312 30.3653 83.3062 30.3653C85.3419 30.3653 86.9782 29.3049 87.6823 27.5289L87.7388 27.3865H85.6873L85.6576 27.4322C85.1665 28.1899 84.4194 28.5435 83.3061 28.5435C81.8304 28.5435 80.7638 27.6619 80.4967 26.2335H88.0602V25.4885C88.0605 22.6623 86.0614 20.6113 83.3062 20.6113ZM80.5606 24.4673C80.9115 23.1902 81.929 22.433 83.3064 22.433C84.6991 22.433 85.7232 23.1907 86.0703 24.4673H80.5606Z" fill="#113050"/>
</g>
<mask id="mask4_2021_49558" style="mask-type:luminance" maskUnits="userSpaceOnUse" x="14" y="12" width="122" height="31">
<path d="M135.975 12.2793H14.5605V42.7807H135.975V12.2793Z" fill="white"/>
</mask>
<g mask="url(#mask4_2021_49558)">
<path d="M104.238 20.6113C101.463 20.6113 99.4487 22.6623 99.4487 25.4885C99.4487 28.3138 101.463 30.3653 104.238 30.3653C106.273 30.3653 107.91 29.3049 108.614 27.5289L108.67 27.3865H106.618L106.589 27.4322C106.098 28.1899 105.351 28.5435 104.237 28.5435C102.762 28.5435 101.695 27.6619 101.428 26.2335H108.992V25.4885C108.992 22.6623 106.992 20.6113 104.238 20.6113ZM101.492 24.4673C101.843 23.1902 102.86 22.433 104.238 22.433C105.63 22.433 106.654 23.1907 107.002 24.4673H101.492Z" fill="#113050"/>
</g>
<mask id="mask5_2021_49558" style="mask-type:luminance" maskUnits="userSpaceOnUse" x="14" y="12" width="122" height="31">
<path d="M135.975 12.2793H14.5605V42.7807H135.975V12.2793Z" fill="white"/>
</mask>
<g mask="url(#mask5_2021_49558)">
<path d="M113.986 20.6115C111.536 20.6115 110.132 22.0946 110.132 24.68V30.1259H112.004V24.68C112.004 23.1892 112.671 22.4332 113.986 22.4332C115.283 22.4332 115.968 23.2101 115.968 24.68V24.8935H117.823V24.6988C117.823 22.1011 116.424 20.6115 113.986 20.6115Z" fill="#113050"/>
</g>
<mask id="mask6_2021_49558" style="mask-type:luminance" maskUnits="userSpaceOnUse" x="14" y="12" width="122" height="31">
<path d="M135.975 12.2793H14.5605V42.7807H135.975V12.2793Z" fill="white"/>
</mask>
<g mask="url(#mask6_2021_49558)">
<path d="M122.507 20.6115C120.057 20.6115 118.652 22.0946 118.652 24.68V30.1259H120.525V24.68C120.525 23.1892 121.192 22.4332 122.507 22.4332C123.803 22.4332 124.489 23.2101 124.489 24.68V24.8935H126.344V24.6988C126.344 22.1011 124.945 20.6115 122.507 20.6115Z" fill="#113050"/>
</g>
<mask id="mask7_2021_49558" style="mask-type:luminance" maskUnits="userSpaceOnUse" x="14" y="12" width="122" height="31">
<path d="M135.975 12.2793H14.5605V42.7807H135.975V12.2793Z" fill="white"/>
</mask>
<g mask="url(#mask7_2021_49558)">
<path d="M134.103 20.8502V25.5983C134.103 27.3846 133.157 28.4514 131.574 28.4514C129.967 28.4514 129.046 27.4114 129.046 25.5983V20.8502H127.173V25.5983C127.173 29.0585 129.301 30.2915 131.292 30.2915C132.501 30.2915 133.506 29.762 134.103 28.8253V30.7816C134.103 32.6396 133.264 33.5428 131.539 33.5428C130.287 33.5428 129.492 33.0712 129.108 32.101L129.084 32.0372H127.215L127.247 32.1657C127.737 34.14 129.302 35.2726 131.539 35.2726C134.358 35.2726 135.975 33.6218 135.975 30.7447V20.85L134.103 20.8502Z" fill="#113050"/>
</g>
<mask id="mask8_2021_49558" style="mask-type:luminance" maskUnits="userSpaceOnUse" x="14" y="12" width="122" height="31">
<path d="M135.975 12.2793H14.5605V42.7807H135.975V12.2793Z" fill="white"/>
</mask>
<g mask="url(#mask8_2021_49558)">
<path d="M94.1443 20.6261C92.8058 20.6261 91.6789 21.1984 90.9986 22.2087V16.7541L89.126 18.7043V25.4293C89.126 28.3901 91.0292 30.3798 93.8625 30.3798C96.6924 30.3798 98.6686 28.3517 98.6686 25.4476C98.6685 22.2824 96.3929 20.6261 94.1443 20.6261ZM93.8797 28.5583C92.1837 28.5583 90.9986 27.3021 90.9986 25.5029C90.9986 23.7045 92.1837 22.4478 93.8797 22.4478C95.5865 22.4478 96.7782 23.7043 96.7782 25.5029C96.778 27.3019 95.5864 28.5583 93.8797 28.5583Z" fill="#113050"/>
</g>
<mask id="mask9_2021_49558" style="mask-type:luminance" maskUnits="userSpaceOnUse" x="14" y="12" width="122" height="31">
<path d="M135.975 12.2793H14.5605V42.7807H135.975V12.2793Z" fill="white"/>
</mask>
<g mask="url(#mask9_2021_49558)">
<path d="M55.2398 26.5898C55.2398 27.8681 54.64 28.5434 53.5049 28.5434C52.3814 28.5434 51.7875 27.8681 51.7875 26.5898V22.6531H55.4376V20.8502H51.7875V17.5548L49.9148 19.5054V26.5898C49.9148 28.9888 51.2233 30.3651 53.5049 30.3651C55.7862 30.3651 57.0947 28.9888 57.0947 26.5898V26.2851H55.2398V26.5898Z" fill="#113050"/>
</g>
<mask id="mask10_2021_49558" style="mask-type:luminance" maskUnits="userSpaceOnUse" x="14" y="12" width="122" height="31">
<path d="M135.975 12.2793H14.5605V42.7807H135.975V12.2793Z" fill="white"/>
</mask>
<g mask="url(#mask10_2021_49558)">
<path d="M125.304 35.7744C125.304 35.6401 125.329 35.5137 125.378 35.3949C125.428 35.2766 125.495 35.1734 125.58 35.0865C125.665 34.9993 125.765 34.9294 125.879 34.8785C125.993 34.8271 126.114 34.8015 126.244 34.8015C126.372 34.8015 126.494 34.8271 126.608 34.8785C126.722 34.9296 126.821 34.9993 126.906 35.0865C126.992 35.1734 127.058 35.2766 127.108 35.3949C127.158 35.5136 127.182 35.6401 127.182 35.7744C127.182 35.909 127.158 36.0347 127.108 36.1517C127.058 36.2692 126.992 36.3713 126.906 36.4582C126.821 36.546 126.722 36.6144 126.608 36.6646C126.494 36.7139 126.372 36.7392 126.244 36.7392C126.114 36.7392 125.993 36.7139 125.879 36.6646C125.765 36.6144 125.665 36.546 125.58 36.4582C125.495 36.3713 125.428 36.2693 125.378 36.1517C125.329 36.0347 125.304 35.909 125.304 35.7744ZM125.453 35.7744C125.453 35.8862 125.473 35.9919 125.514 36.0917C125.555 36.1916 125.612 36.2799 125.683 36.3553C125.754 36.4312 125.838 36.4903 125.934 36.5331C126.031 36.5763 126.133 36.5976 126.243 36.5976C126.353 36.5976 126.456 36.5763 126.552 36.5331C126.648 36.4903 126.732 36.4312 126.803 36.3553C126.875 36.2799 126.931 36.1918 126.972 36.0917C127.013 35.9917 127.034 35.886 127.034 35.7744C127.034 35.6601 127.013 35.5532 126.972 35.4528C126.931 35.3528 126.875 35.2656 126.803 35.1913C126.732 35.1171 126.648 35.0583 126.552 35.0154C126.456 34.9726 126.353 34.951 126.243 34.951C126.133 34.951 126.031 34.9726 125.934 35.0154C125.838 35.0583 125.754 35.1171 125.683 35.1913C125.612 35.2656 125.555 35.353 125.514 35.4528C125.473 35.5532 125.453 35.6601 125.453 35.7744ZM125.877 35.2215H126.248C126.297 35.2215 126.345 35.2273 126.391 35.2382C126.438 35.2496 126.48 35.2684 126.517 35.294C126.554 35.3201 126.584 35.3528 126.606 35.3928C126.627 35.4328 126.639 35.4825 126.639 35.5429C126.639 35.6229 126.617 35.6882 126.572 35.7379C126.529 35.7881 126.47 35.8216 126.395 35.8386L126.68 36.3188H126.449L126.202 35.8602H126.066V36.3188H125.877V35.2215H125.877ZM126.218 35.7017C126.273 35.7017 126.325 35.6907 126.375 35.6694C126.425 35.6478 126.449 35.6045 126.449 35.5388C126.449 35.4788 126.426 35.4384 126.381 35.4184C126.335 35.3984 126.288 35.3886 126.239 35.3886H126.066V35.7015L126.218 35.7017Z" fill="#0075C9"/>
</g>
<mask id="mask11_2021_49558" style="mask-type:luminance" maskUnits="userSpaceOnUse" x="14" y="12" width="122" height="31">
<path d="M135.975 12.2793H14.5605V42.7807H135.975V12.2793Z" fill="white"/>
</mask>
<g mask="url(#mask11_2021_49558)">
<path d="M79.4397 37.6231C79.4397 34.6497 81.5373 32.4653 84.5092 32.4653C87.0007 32.4653 88.8799 33.9973 89.419 36.2576H87.4522C87.0007 35.0593 85.9224 34.2702 84.5092 34.2702C82.6154 34.2702 81.3333 35.6814 81.3333 37.6231C81.3333 39.5647 82.6154 40.9906 84.5092 40.9906C85.9224 40.9906 87.0007 40.1869 87.4522 38.9881H89.419C88.8799 41.2488 87.0007 42.7809 84.5092 42.7809C81.5373 42.7809 79.4397 40.5962 79.4397 37.6231Z" fill="#0075C9"/>
</g>
<mask id="mask12_2021_49558" style="mask-type:luminance" maskUnits="userSpaceOnUse" x="14" y="12" width="122" height="31">
<path d="M135.975 12.2793H14.5605V42.7807H135.975V12.2793Z" fill="white"/>
</mask>
<g mask="url(#mask12_2021_49558)">
<path d="M90.5986 38.2299C90.5986 35.9696 91.8807 34.8926 93.7599 34.8926C95.6391 34.8926 96.9068 35.9697 96.9068 38.2606V38.3059H95.1878V38.2301C95.1878 37.0164 94.605 36.5765 93.7601 36.5765C92.9152 36.5765 92.3324 37.0164 92.3324 38.2301V42.5838H90.5988V38.2299H90.5986Z" fill="#0075C9"/>
</g>
<mask id="mask13_2021_49558" style="mask-type:luminance" maskUnits="userSpaceOnUse" x="14" y="12" width="122" height="31">
<path d="M135.975 12.2793H14.5605V42.7807H135.975V12.2793Z" fill="white"/>
</mask>
<g mask="url(#mask13_2021_49558)">
<path d="M103.433 38.033C103.156 37.0313 102.37 36.5307 101.422 36.5307C100.447 36.5307 99.6887 37.0467 99.4122 38.033H103.433ZM97.5474 38.8367C97.5474 36.5612 99.1501 34.8922 101.422 34.8922C103.695 34.8922 105.268 36.5614 105.268 38.8367V39.474H99.3685C99.6017 40.5662 100.403 41.1426 101.422 41.1426C102.195 41.1426 102.763 40.915 103.127 40.4295H104.978C104.438 41.8554 103.127 42.7807 101.422 42.7807C99.1501 42.7807 97.5474 41.1121 97.5474 38.8367Z" fill="#0075C9"/>
</g>
<mask id="mask14_2021_49558" style="mask-type:luminance" maskUnits="userSpaceOnUse" x="14" y="12" width="122" height="31">
<path d="M135.975 12.2793H14.5605V42.7807H135.975V12.2793Z" fill="white"/>
</mask>
<g mask="url(#mask14_2021_49558)">
<path d="M112.101 38.8368C112.101 37.5169 111.256 36.5765 109.989 36.5765C108.721 36.5765 107.861 37.5169 107.861 38.8368C107.861 40.1567 108.721 41.0972 109.989 41.0972C111.256 41.0972 112.101 40.1567 112.101 38.8368ZM106.113 38.761C106.113 36.1972 107.949 34.8924 109.697 34.8924C110.732 34.8924 111.591 35.3477 112.101 36.1821V31.8129H113.835V38.7761C113.835 41.2032 112.261 42.7809 110.003 42.7809C107.716 42.7809 106.113 41.1424 106.113 38.761Z" fill="#0075C9"/>
</g>
<mask id="mask15_2021_49558" style="mask-type:luminance" maskUnits="userSpaceOnUse" x="14" y="12" width="122" height="31">
<path d="M135.975 12.2793H14.5605V42.7807H135.975V12.2793Z" fill="white"/>
</mask>
<g mask="url(#mask15_2021_49558)">
<path d="M115.51 35.0897H117.243V42.5836H115.51V35.0897ZM115.233 32.9205C115.233 32.2224 115.714 31.7067 116.383 31.7067C117.054 31.7067 117.534 32.2224 117.534 32.9205C117.534 33.6181 117.054 34.1187 116.383 34.1187C115.714 34.1187 115.233 33.6181 115.233 32.9205Z" fill="#0075C9"/>
</g>
<mask id="mask16_2021_49558" style="mask-type:luminance" maskUnits="userSpaceOnUse" x="14" y="12" width="122" height="31">
<path d="M135.975 12.2793H14.5605V42.7807H135.975V12.2793Z" fill="white"/>
</mask>
<g mask="url(#mask16_2021_49558)">
<path d="M118.918 39.7014V34.3351L120.652 32.4352V35.09H124.367V36.7282H120.652V39.7016C120.652 40.7028 121.147 41.0973 121.861 41.0973C122.575 41.0973 123.07 40.7179 123.07 39.7016V39.5042H124.804V39.7016C124.804 41.7799 123.609 42.7811 121.861 42.7811C120.113 42.7809 118.918 41.7798 118.918 39.7014Z" fill="#0075C9"/>
</g>
</svg>
